<?xml version="1.0" standalone="no"?>
<!DOCTYPE svg PUBLIC "-//W3C//DTD SVG 20010904//EN"
 "http://www.w3.org/TR/2001/REC-SVG-20010904/DTD/svg10.dtd">
<svg version="1.0" xmlns="http://www.w3.org/2000/svg"
 width="541.000000pt" height="541.000000pt" viewBox="0 0 541.000000 541.000000"
 preserveAspectRatio="xMidYMid meet">
<metadata>
Created by potrace 1.11, written by Peter Selinger 2001-2013
</metadata>
<g transform="translate(0.000000,541.000000) scale(0.100000,-0.100000)"
fill="#000000" stroke="none">
<path d="M2626 4144 c-18 -16 -34 -23 -45 -18 -39 16 -58 16 -63 -3 -4 -14
-41 -27 -182 -62 -97 -24 -179 -47 -181 -51 -2 -3 -44 2 -92 12 -48 10 -122
18 -163 18 -54 0 -95 7 -145 25 -90 32 -110 31 -144 -3 -56 -56 -100 -234 -84
-342 l8 -55 -85 -50 c-55 -32 -116 -80 -171 -135 -119 -118 -178 -228 -208
-391 -13 -66 -13 -66 -64 -91 -176 -86 -308 -255 -354 -448 -18 -79 -25 -90
-58 -90 -36 0 -102 -51 -124 -94 -11 -23 -23 -61 -27 -84 -5 -34 -10 -42 -23
-37 -40 17 -90 17 -125 0 -43 -21 -85 -86 -93 -144 -5 -38 -6 -39 -54 -43 -63
-6 -96 -30 -121 -85 -24 -53 -22 -136 4 -193 9 -19 19 -51 22 -70 11 -65 62
-156 119 -211 57 -56 141 -108 153 -96 4 4 0 32 -10 62 -9 30 -20 78 -23 107
l-6 53 46 -47 c25 -26 70 -60 99 -75 48 -26 62 -28 158 -28 136 0 194 19 262
86 l50 49 137 0 c236 0 328 36 458 178 79 86 113 136 113 167 0 10 10 15 34
15 40 0 92 17 127 41 26 18 27 18 49 -6 13 -14 27 -25 31 -25 4 0 27 28 52 63
62 87 121 139 154 135 35 -4 61 -42 75 -109 12 -60 9 -78 -48 -276 -31 -106 2
-234 83 -323 19 -22 41 -40 48 -40 7 0 30 24 51 53 l38 52 8 -44 c10 -57 72
-161 96 -161 6 0 23 19 39 42 36 53 47 56 63 18 26 -62 129 -132 195 -132 66
0 169 70 195 132 16 38 27 35 63 -18 16 -23 33 -42 39 -42 24 0 86 104 96 161
l8 44 38 -53 c21 -28 44 -52 51 -52 18 0 80 71 105 119 11 22 25 72 32 111 11
62 10 79 -6 133 -57 198 -60 216 -48 276 14 67 40 105 75 109 33 4 92 -48 154
-135 25 -35 48 -63 52 -63 4 0 18 11 31 25 22 24 23 24 49 6 35 -24 87 -41
127 -41 24 0 34 -5 34 -15 0 -31 34 -81 113 -167 130 -142 222 -178 458 -178
l137 0 50 -49 c68 -67 126 -86 262 -86 96 0 110 2 158 28 29 15 73 49 98 74
l44 47 0 -31 c0 -16 -9 -65 -20 -108 -11 -43 -20 -82 -20 -87 0 -18 103 48
157 101 57 55 108 146 119 211 3 19 13 51 22 70 26 57 28 140 4 193 -25 55
-58 79 -121 85 -48 4 -49 5 -54 43 -8 58 -50 123 -93 144 -35 17 -85 17 -125
0 -13 -5 -18 3 -23 37 -4 23 -16 61 -27 84 -22 43 -88 94 -124 94 -33 0 -40
11 -58 90 -46 193 -178 362 -354 448 -51 25 -51 25 -64 91 -30 163 -89 273
-208 391 -55 55 -116 103 -171 135 l-85 50 8 55 c16 108 -28 286 -84 342 -34
34 -54 35 -144 3 -50 -18 -91 -25 -145 -25 -41 0 -115 -8 -163 -18 -48 -10
-90 -15 -92 -12 -2 4 -84 27 -181 51 -141 35 -178 48 -182 62 -5 19 -24 19
-63 3 -10 -5 -28 3 -49 20 l-33 28 -17 -22 c-22 -27 -32 -28 -48 -2 -16 25
-21 25 -56 -6z m54 -29 c16 -19 29 -19 52 2 17 15 20 15 50 -7 25 -19 35 -21
49 -11 15 9 23 7 38 -8 19 -19 79 -41 113 -41 17 0 99 -60 161 -118 31 -30 37
-43 37 -77 l0 -40 -21 43 c-26 51 -77 89 -136 98 -41 6 -43 5 -43 -19 0 -29
36 -62 79 -72 15 -3 45 -24 66 -45 43 -44 55 -49 55 -22 0 10 10 0 25 -25 26
-43 102 -105 145 -118 31 -9 109 -65 174 -125 28 -25 42 -34 33 -20 -24 34
-22 38 21 50 21 5 49 21 62 35 l24 26 -37 -16 c-50 -21 -96 -19 -137 7 l-35
21 30 13 c17 7 35 13 41 14 6 0 21 12 35 27 20 22 21 25 5 19 -115 -41 -205
-32 -278 29 l-27 23 66 16 c78 20 123 42 188 92 53 40 152 89 201 99 30 6 31
5 47 -47 40 -129 46 -224 21 -345 -25 -121 -40 -151 -77 -155 -31 -3 -30 -4
18 -21 81 -29 142 -76 164 -127 22 -54 54 -161 48 -166 -2 -2 -25 21 -51 52
-27 30 -50 53 -53 50 -3 -2 22 -44 54 -93 117 -173 167 -303 180 -463 l6 -84
-69 70 c-73 74 -121 111 -130 101 -3 -3 9 -50 26 -104 34 -101 49 -228 36
-296 l-6 -34 -60 58 c-33 33 -64 59 -69 59 -5 0 -6 -40 -3 -89 4 -86 -4 -150
-30 -214 l-11 -28 -28 52 c-16 28 -35 57 -43 63 -8 6 -17 32 -21 59 -3 26 -10
47 -14 47 -5 0 -11 -28 -15 -62 -9 -85 -33 -168 -57 -198 -18 -23 -20 -24 -30
-7 -25 42 -97 124 -129 145 -43 29 -94 29 -124 -1 -13 -13 -32 -48 -44 -79
-18 -48 -19 -64 -11 -127 5 -40 20 -98 33 -129 34 -80 38 -103 26 -178 -12
-72 -34 -124 -76 -173 l-26 -31 -34 44 c-18 24 -47 54 -64 66 l-30 21 0 -56
c0 -37 -7 -70 -21 -98 -36 -71 -37 -71 -80 -24 -30 33 -38 50 -39 81 0 50 -11
38 -34 -39 -23 -74 -89 -146 -153 -165 -36 -11 -49 -11 -87 4 -62 24 -120 90
-142 162 -23 76 -34 88 -34 38 -1 -31 -9 -48 -39 -81 -43 -47 -44 -47 -80 24
-14 28 -21 61 -21 98 l0 56 -30 -21 c-17 -12 -46 -42 -64 -66 l-34 -44 -26 31
c-42 49 -64 101 -76 173 -12 75 -8 98 26 178 13 31 28 89 33 129 8 63 7 79
-11 127 -51 136 -136 137 -244 5 -23 -28 -47 -60 -53 -70 -10 -17 -12 -16 -30
7 -24 30 -48 113 -57 197 -7 68 -19 74 -30 15 -4 -20 -13 -44 -20 -53 -8 -8
-27 -39 -42 -68 l-29 -52 -11 28 c-26 64 -34 128 -30 214 3 49 2 89 -3 89 -5
0 -35 -26 -68 -58 -69 -68 -71 -66 -71 57 0 82 17 160 55 246 14 31 24 60 21
62 -12 12 -88 -38 -145 -96 l-64 -66 6 85 c13 160 63 290 180 463 32 49 57 91
54 93 -3 3 -26 -20 -53 -50 -26 -31 -50 -54 -52 -51 -2 2 0 18 6 34 7 18 7 33
2 36 -6 3 -1 29 10 58 25 66 83 120 164 149 40 15 54 24 40 26 -24 3 -46 57
-69 167 -24 115 -18 216 22 343 16 52 17 53 47 47 49 -10 148 -59 201 -99 65
-50 110 -72 188 -92 l66 -16 -27 -23 c-73 -61 -163 -70 -278 -29 -16 6 -15 3
5 -19 14 -15 29 -27 35 -27 6 -1 25 -7 41 -14 l30 -13 -35 -21 c-41 -26 -87
-28 -137 -7 l-36 15 19 -21 c10 -12 34 -28 52 -36 18 -7 32 -21 32 -30 0 -9
-20 -36 -45 -60 -25 -24 -41 -43 -36 -43 6 0 45 33 88 73 90 83 167 141 203
152 43 13 119 75 145 118 15 25 25 35 25 25 0 -27 12 -22 55 22 21 21 51 42
66 45 43 10 79 43 79 72 0 24 -2 25 -42 19 -60 -9 -111 -47 -137 -98 l-21 -43
0 40 c0 34 6 47 38 77 61 58 143 118 160 118 34 0 94 22 113 41 16 16 23 17
38 7 15 -9 24 -7 46 10 33 26 39 27 55 7z m-1125 -522 c4 -16 22 -59 41 -97
32 -66 33 -70 16 -82 -10 -7 -38 -29 -61 -48 -29 -25 -53 -36 -74 -36 -18 0
-49 -5 -69 -10 -32 -9 -40 -8 -57 9 -11 11 -37 23 -58 26 -62 10 -65 13 -54
33 30 56 255 232 297 232 7 0 15 -12 19 -27z m2399 -15 c79 -47 232 -190 222
-207 -4 -6 -19 -11 -34 -11 -15 0 -47 -9 -71 -20 -44 -21 -59 -20 -186 6 -11
2 -39 21 -63 42 l-42 38 34 69 c19 39 37 82 41 98 4 15 12 27 18 27 6 0 43
-19 81 -42z m-2719 -611 c22 -8 39 -18 38 -23 -2 -5 -32 -10 -68 -12 -36 -2
-65 -6 -65 -11 0 -4 -19 -28 -43 -53 -45 -49 -115 -180 -124 -233 -4 -26 0
-36 23 -54 l28 -22 -40 7 c-61 9 -117 -10 -158 -56 -19 -22 -38 -50 -41 -63
l-6 -24 -37 18 c-20 11 -45 19 -55 19 -17 0 -18 5 -12 38 34 186 149 353 310
450 68 40 72 42 140 37 39 -2 88 -11 110 -18z m3187 -19 c161 -93 278 -261
313 -450 6 -33 5 -38 -12 -38 -10 0 -35 -8 -55 -19 l-37 -18 -6 24 c-3 13 -22
41 -41 63 -41 46 -97 65 -158 56 l-40 -7 28 22 c23 18 27 28 23 54 -9 53 -79
184 -124 233 -24 25 -43 49 -43 54 0 4 -29 8 -64 8 -102 0 -91 27 19 50 88 17
119 12 197 -32z m-3086 -133 c-27 -71 -34 -291 -9 -316 8 -8 21 4 51 48 45 65
120 141 107 108 -38 -99 -48 -146 -49 -235 -1 -141 36 -210 76 -142 9 15 28
38 42 51 l26 24 0 -81 c0 -86 18 -157 52 -204 26 -38 44 -35 59 10 7 20 21 51
33 69 l20 31 18 -56 c13 -42 14 -59 6 -70 -19 -22 -60 -40 -111 -47 -42 -7
-47 -5 -47 12 0 35 -51 122 -91 157 -54 46 -117 63 -171 47 -42 -13 -57 -6
-58 27 0 27 -68 159 -100 196 l-34 38 17 65 c22 85 67 176 114 235 38 47 60
62 49 33z m2787 -33 c47 -59 92 -150 114 -235 l17 -65 -34 -38 c-32 -37 -100
-169 -100 -196 -1 -33 -16 -40 -58 -27 -54 16 -117 -1 -171 -47 -40 -35 -91
-122 -91 -157 0 -17 -5 -19 -47 -12 -51 7 -92 25 -111 47 -8 11 -7 28 6 70
l18 56 20 -31 c12 -18 26 -49 33 -69 15 -45 33 -48 59 -10 34 47 52 118 52
204 l0 81 26 -24 c14 -13 33 -36 42 -51 40 -68 76 1 76 142 0 75 -6 110 -26
170 -15 41 -25 76 -24 78 4 3 82 -82 122 -133 18 -22 36 -36 40 -32 22 21 13
246 -12 312 -11 29 11 14 49 -33z m-3060 -282 c59 -29 117 -91 152 -161 31
-61 28 -72 -41 -140 -43 -42 -44 -42 -44 -18 0 15 13 40 31 59 29 29 31 37 26
79 -7 59 -26 101 -45 101 -11 0 -13 -8 -8 -31 l6 -31 -36 32 c-20 17 -47 36
-61 41 -58 22 -124 3 -161 -48 l-19 -27 -12 22 c-6 12 -18 22 -26 22 -19 0
-19 3 5 51 42 82 130 100 233 49z m3464 10 c18 -10 41 -37 53 -59 24 -48 24
-51 5 -51 -8 0 -20 -10 -26 -22 l-12 -22 -19 27 c-37 51 -103 70 -161 48 -14
-5 -41 -24 -61 -41 l-36 -32 6 31 c5 23 3 31 -8 31 -19 0 -38 -42 -45 -101 -5
-42 -3 -50 26 -79 18 -19 31 -44 31 -59 0 -24 -1 -24 -44 18 -69 68 -72 79
-42 140 76 149 235 231 333 171z m-3802 -101 c33 -16 47 -28 50 -48 3 -14 9
-43 14 -64 8 -35 7 -37 -9 -22 -51 46 -156 41 -207 -10 l-32 -32 -6 29 c-4 16
-15 34 -26 41 -24 15 -24 28 3 62 52 66 131 83 213 44z m4114 6 c32 -16 81
-70 81 -88 0 -7 -9 -18 -19 -24 -11 -7 -22 -25 -26 -41 l-6 -29 -32 32 c-51
51 -156 56 -207 10 -16 -15 -17 -13 -9 22 5 21 11 50 14 64 10 54 139 88 204
54z m-3774 -40 c39 -29 48 -66 34 -142 -10 -52 -8 -100 7 -176 l6 -29 -33 18
c-49 25 -142 122 -167 175 -26 53 -28 89 -7 129 32 62 99 73 160 25z m3395 20
c34 -18 60 -62 60 -101 0 -66 -106 -206 -188 -248 l-32 -16 8 47 c7 49 7 90 1
200 -4 68 7 89 64 117 40 20 51 20 87 1z m-3719 -135 c37 -20 46 -59 51 -210
3 -92 11 -160 20 -186 l15 -42 -29 10 c-50 18 -121 72 -152 119 -17 24 -44 76
-60 116 -34 85 -30 130 14 175 23 23 37 28 75 28 25 0 55 -5 66 -10z m4069
-18 c44 -45 48 -90 14 -175 -16 -40 -43 -92 -60 -116 -31 -47 -102 -101 -152
-119 l-29 -10 15 42 c9 26 16 93 19 181 2 77 9 153 15 168 15 40 46 57 101 57
40 0 54 -5 77 -28z m-4397 -31 c17 -7 30 -24 41 -57 9 -26 16 -48 16 -48 0 -1
-25 1 -56 2 -45 3 -62 0 -85 -17 l-29 -22 0 34 c0 18 -6 42 -14 52 -18 25 -10
44 28 61 31 14 53 12 99 -5z m4676 8 c40 -14 54 -38 35 -64 -8 -10 -14 -34
-14 -52 l0 -34 -29 22 c-23 17 -40 20 -85 17 -52 -3 -55 -2 -50 17 19 63 33
82 65 92 45 15 42 14 78 2z m-3607 -62 c75 -58 119 -167 82 -208 -9 -10 -21
-19 -25 -19 -4 0 -15 23 -24 50 -28 83 -114 123 -207 97 -25 -6 -28 -5 -28 15
1 68 36 97 117 98 32 0 51 -8 85 -33z m2597 22 c34 -12 51 -41 51 -85 0 -22
-3 -24 -27 -17 -94 26 -180 -14 -208 -97 -9 -27 -20 -50 -24 -50 -4 0 -16 9
-25 19 -37 41 7 150 82 208 47 36 92 42 151 22z m-3621 -110 c17 -6 34 -20 39
-32 4 -12 7 -96 8 -187 1 -104 5 -175 13 -193 l12 -28 -32 23 c-86 60 -178
186 -192 261 -9 48 9 113 39 143 26 26 63 31 113 13z m4607 -13 c30 -30 48
-95 39 -143 -14 -75 -106 -201 -192 -261 l-32 -23 12 28 c8 18 12 89 13 193 1
91 4 175 9 187 15 45 113 57 151 19z m-3640 -18 c61 -28 86 -156 44 -224 -32
-52 -106 -111 -166 -134 -57 -21 -143 -37 -143 -27 0 4 14 28 30 54 40 63 60
134 59 206 -1 44 3 65 18 85 37 50 102 66 158 40z m2674 -1 c45 -23 64 -60 62
-124 -1 -72 19 -143 59 -206 16 -26 30 -50 30 -54 0 -10 -86 6 -143 27 -60 23
-134 82 -166 134 -41 66 -17 196 41 223 31 16 88 15 117 0z m-3883 -78 c7 -29
13 -54 14 -54 0 0 -24 0 -52 0 -29 0 -60 -4 -68 -8 -12 -6 -18 3 -28 39 -15
54 -7 70 42 82 57 16 78 2 92 -59z m5111 38 c20 -20 -4 -111 -27 -100 -8 4
-39 8 -68 8 -28 0 -52 0 -52 0 1 0 7 25 14 55 10 44 17 56 37 60 29 8 78 -4
96 -23z m-5089 -143 c21 -14 22 -20 22 -167 0 -84 4 -168 10 -186 5 -19 8 -36
6 -38 -8 -8 -90 62 -121 104 -40 55 -75 150 -75 204 0 40 29 85 64 99 25 10
62 3 94 -16z m5065 -15 c33 -36 35 -81 7 -165 -25 -72 -76 -144 -132 -184 -23
-17 -43 -29 -44 -27 -2 2 1 19 6 38 6 18 10 102 10 185 0 164 1 167 57 184 39
11 63 3 96 -31z"/>
<path d="M2457 4024 c-10 -11 13 -56 48 -96 19 -21 35 -40 35 -41 0 -2 -12 -2
-27 0 -41 5 -78 -18 -78 -47 0 -24 2 -25 61 -22 44 3 64 0 72 -11 10 -11 9
-17 -2 -26 -21 -18 -30 -69 -16 -86 11 -13 15 -13 33 0 12 8 38 15 59 15 27 0
40 5 48 20 21 40 -17 88 -61 77 -14 -4 -20 1 -25 21 -3 15 -11 41 -18 57 l-13
30 56 0 c60 0 69 10 57 61 -6 22 -11 24 -69 24 -34 1 -80 7 -102 15 -46 17
-49 17 -58 9z"/>
<path d="M2890 4014 c-19 -7 -63 -13 -97 -13 -58 -1 -63 -3 -69 -25 -12 -51
-3 -61 57 -61 l56 0 -13 -30 c-7 -16 -15 -42 -18 -57 -5 -20 -11 -25 -25 -21
-44 11 -82 -37 -61 -77 8 -15 21 -20 48 -20 21 0 47 -7 59 -15 18 -13 22 -13
33 0 14 17 5 68 -16 86 -11 9 -12 15 -2 26 8 11 28 14 72 11 59 -3 61 -2 61
22 0 29 -37 52 -77 47 -16 -2 -28 -2 -28 0 0 1 16 20 35 41 35 40 58 85 48 96
-8 8 -21 6 -63 -10z"/>
<path d="M2350 3764 c-27 -15 -61 -24 -87 -24 -30 0 -45 -5 -50 -15 -8 -21 -4
-24 59 -37 83 -17 130 8 140 76 4 27 -10 27 -62 0z"/>
<path d="M2998 3785 c-10 -10 4 -53 23 -74 28 -29 63 -36 126 -22 42 10 53 17
51 29 -2 13 -18 19 -60 23 -31 3 -73 16 -93 28 -40 23 -40 23 -47 16z"/>
<path d="M2696 3698 c-3 -7 -8 -35 -11 -63 -4 -27 -13 -68 -21 -90 -12 -35
-11 -43 4 -70 10 -16 27 -30 37 -30 10 0 27 14 37 30 16 28 16 34 3 73 -8 23
-18 67 -21 97 -7 54 -20 79 -28 53z"/>
<path d="M2417 3605 c-26 -24 -65 -50 -88 -56 -28 -9 -48 -24 -65 -48 -46 -67
-24 -96 70 -95 104 1 146 50 154 177 5 82 -4 85 -71 22z"/>
<path d="M2922 3583 c8 -127 50 -176 154 -177 94 -1 116 28 70 95 -17 24 -37
39 -65 48 -23 6 -62 32 -88 56 -67 63 -76 60 -71 -22z"/>
<path d="M2112 3510 c-18 -11 -35 -27 -38 -35 -10 -24 16 -46 50 -43 24 2 36
12 53 43 13 22 23 43 23 48 0 14 -56 6 -88 -13z"/>
<path d="M3210 3523 c0 -5 10 -26 23 -48 17 -31 29 -41 53 -43 34 -3 60 19 50
43 -8 22 -67 55 -98 55 -16 0 -28 -3 -28 -7z"/>
<path d="M3584 3471 c7 -11 46 -35 46 -28 0 3 -12 12 -26 22 -15 9 -23 12 -20
6z"/>
<path d="M1878 3356 c5 -42 -4 -47 -81 -53 -83 -5 -121 -26 -156 -84 -45 -71
-63 -138 -59 -208 l3 -60 -37 -6 c-56 -10 -56 -25 0 -25 48 0 50 -1 81 -51 29
-48 61 -140 61 -179 0 -11 -17 -19 -59 -28 -32 -7 -64 -19 -71 -27 -15 -18
-11 -18 65 0 32 8 61 12 64 9 3 -3 4 -53 3 -111 -2 -124 11 -127 31 -8 l13 80
7 -55 c4 -30 7 -74 7 -97 0 -39 -3 -44 -34 -57 -35 -15 -65 -45 -32 -33 10 4
29 10 44 14 22 5 24 3 18 -13 -5 -14 -1 -12 18 7 24 25 91 47 104 34 4 -4 9
-58 11 -121 3 -108 4 -114 20 -100 30 27 63 107 75 177 6 38 14 69 17 69 15 0
82 -87 104 -133 l23 -49 7 31 c4 17 4 49 0 71 -9 50 5 51 38 3 63 -92 70 -122
62 -282 -13 -269 -12 -292 11 -336 11 -22 36 -51 55 -64 30 -20 42 -22 99 -18
36 3 88 16 115 28 44 20 67 22 195 23 128 0 152 -3 200 -22 30 -13 84 -25 120
-28 57 -5 69 -3 99 17 19 13 44 42 55 64 23 44 24 67 11 336 -8 160 -1 190 62
282 33 48 47 47 38 -3 -4 -22 -4 -54 0 -71 l7 -31 23 49 c22 46 89 133 104
133 3 0 11 -31 17 -69 12 -70 45 -150 75 -177 16 -14 17 -8 20 100 2 63 7 118
11 121 14 14 79 -7 103 -33 19 -20 24 -22 19 -8 -6 17 -4 18 22 13 16 -3 38
-9 49 -13 18 -7 18 -6 7 9 -8 9 -29 21 -48 27 -31 11 -34 15 -34 53 0 23 3 67
7 97 l7 55 13 -80 c20 -119 33 -116 31 8 -1 58 0 109 4 112 3 3 36 -1 73 -10
37 -8 70 -14 72 -12 10 10 -32 30 -86 40 -44 8 -61 16 -61 27 0 39 32 131 61
179 l32 51 54 0 c63 0 63 16 0 25 l-42 6 3 60 c4 70 -15 137 -59 208 -35 58
-73 79 -156 84 -77 6 -86 11 -81 53 2 19 0 34 -4 34 -18 0 -41 -55 -42 -100
-1 -33 -7 -55 -21 -70 -32 -35 -94 -62 -147 -64 -55 -1 -58 -15 -7 -33 30 -10
34 -15 32 -43 0 -17 -9 -40 -19 -51 -29 -32 -7 -33 26 -1 16 17 33 44 36 61 4
17 11 31 15 31 16 0 98 81 105 102 6 19 7 19 35 -8 24 -23 29 -36 29 -76 0
-88 -37 -128 -152 -164 -32 -10 -58 -21 -58 -25 0 -15 95 -22 147 -11 95 20
128 58 151 175 7 36 8 37 29 22 22 -16 53 -92 53 -132 0 -52 -48 -88 -64 -48
-3 8 -12 15 -19 15 -15 0 -222 -104 -300 -151 -26 -16 -51 -29 -56 -29 -22 0
-69 52 -75 84 -7 38 -29 62 -68 71 -16 4 -31 18 -38 35 -14 33 -46 65 -75 74
-20 6 -47 50 -37 61 3 3 13 5 23 5 37 0 135 44 161 72 15 16 30 45 34 64 6 31
9 34 43 34 50 0 132 25 165 51 41 32 31 42 -14 14 -38 -24 -47 -25 -163 -23
-67 1 -179 -2 -249 -6 -120 -8 -129 -7 -163 13 -33 19 -36 19 -33 4 3 -14 33
-35 86 -59 2 -1 5 -21 7 -44 2 -23 7 -55 10 -71 5 -22 3 -29 -9 -29 -16 0 -86
-57 -86 -70 0 -4 23 4 51 18 47 24 54 25 78 11 37 -21 39 -45 2 -52 -31 -6
-121 -65 -121 -79 0 -4 -56 -8 -125 -8 -69 0 -125 4 -125 8 0 14 -90 73 -121
79 -37 7 -35 31 2 52 24 14 31 13 78 -11 28 -14 51 -22 51 -18 0 13 -70 70
-86 70 -12 0 -14 7 -9 29 3 16 8 48 10 71 2 23 5 43 7 44 53 24 83 45 86 59 3
15 0 15 -33 -4 -34 -20 -43 -21 -163 -13 -70 4 -182 7 -249 6 -116 -2 -125 -1
-163 23 -45 28 -55 18 -14 -14 33 -26 115 -51 165 -51 34 0 37 -3 43 -34 4
-19 19 -48 34 -64 26 -28 124 -72 161 -72 10 0 20 -2 23 -5 10 -11 -17 -55
-37 -61 -29 -9 -61 -41 -75 -74 -8 -19 -22 -31 -40 -35 -35 -8 -56 -31 -66
-70 -7 -33 -29 -62 -56 -76 -13 -7 -28 -3 -55 14 -54 33 -307 157 -322 157 -6
0 -14 -7 -17 -15 -14 -36 -64 -1 -64 44 0 43 30 120 53 136 21 15 22 14 29
-22 23 -117 56 -155 151 -175 52 -11 147 -4 147 11 0 4 -26 15 -57 25 -116 36
-153 76 -153 164 0 41 5 53 30 77 17 16 30 23 30 17 0 -17 78 -100 100 -107
10 -3 20 -19 24 -36 3 -17 20 -44 36 -61 33 -32 55 -31 26 1 -10 11 -19 34
-19 51 -2 28 2 33 32 43 51 18 48 32 -7 33 -53 2 -115 29 -147 64 -14 15 -20
37 -21 70 -1 45 -24 100 -42 100 -4 0 -6 -15 -4 -34z m402 -95 c0 -10 9 -30
21 -45 26 -33 77 -36 104 -6 10 11 24 20 30 20 16 0 28 -45 20 -71 -7 -22 -21
-21 -122 7 -67 18 -115 78 -86 107 13 14 33 7 33 -12z m888 -7 c5 -34 -35 -72
-91 -88 -101 -28 -115 -29 -122 -7 -8 26 4 71 20 71 6 0 20 -9 30 -20 27 -30
78 -27 104 6 12 15 21 35 21 46 0 26 34 20 38 -8z m-788 6 c0 -5 -9 -10 -20
-10 -11 0 -20 5 -20 10 0 6 9 10 20 10 11 0 20 -4 20 -10z m690 0 c0 -5 -9
-10 -20 -10 -11 0 -20 5 -20 10 0 6 9 10 20 10 11 0 20 -4 20 -10z m-622 -246
c20 -6 15 -10 -35 -30 -65 -27 -83 -29 -83 -12 0 38 57 58 118 42z m614 -11
c21 -19 24 -43 6 -43 -7 0 -39 11 -72 24 -42 17 -53 25 -40 29 41 10 88 6 106
-10z m-982 -231 c0 -5 -13 -21 -29 -36 -26 -25 -29 -26 -33 -8 -3 11 -1 27 4
36 5 10 7 24 4 32 -5 12 -1 12 24 -1 17 -9 30 -19 30 -23z m249 -5 c41 -26 57
-43 62 -64 15 -75 107 -183 155 -183 21 0 23 3 14 19 -16 32 -13 43 10 31 10
-6 22 -25 25 -44 4 -19 20 -47 36 -62 16 -15 29 -34 29 -41 0 -7 -18 -31 -40
-53 -51 -51 -128 -75 -218 -67 -67 7 -108 26 -242 114 -49 32 -26 36 136 24
106 -7 140 -7 146 2 12 20 -19 24 -192 26 l-165 1 -32 36 c-27 29 -33 45 -33
80 0 24 1 44 3 44 10 0 180 -61 217 -79 54 -25 100 -28 100 -6 0 8 -8 15 -17
15 -16 0 -282 88 -292 96 -2 1 17 24 42 51 l45 47 46 -38 c25 -20 46 -44 46
-51 0 -20 50 -32 61 -14 9 14 -34 55 -100 95 -32 20 -33 22 -14 28 12 4 24 14
27 23 10 25 79 10 145 -30z m898 30 c4 -8 17 -18 27 -24 18 -10 16 -13 -20
-36 -64 -43 -97 -74 -90 -86 11 -17 47 -13 53 7 2 9 26 34 53 54 l48 38 42
-46 c23 -25 40 -48 37 -50 -9 -9 -261 -94 -279 -94 -10 0 -18 -7 -18 -15 0
-22 46 -19 100 6 54 25 179 69 196 69 20 0 24 -40 8 -81 -25 -62 -41 -67 -221
-70 -169 -3 -197 -7 -185 -26 6 -9 37 -10 127 -3 214 17 219 13 80 -65 -11 -6
-41 -23 -66 -38 -100 -59 -253 -43 -329 33 -22 22 -40 46 -40 53 0 7 13 26 29
41 16 15 32 43 36 62 3 19 15 38 25 44 23 12 26 1 10 -31 -18 -32 34 -24 74
12 40 35 96 126 96 157 0 20 65 69 120 91 36 14 78 13 87 -2z m165 -70 c-4
-16 -8 -15 -34 10 l-29 27 23 17 c22 17 23 17 34 -9 6 -15 9 -35 6 -45z
m-1534 -292 c-2 -1 -17 -5 -34 -8 l-31 -6 20 56 21 55 13 -47 c8 -26 13 -48
11 -50z m1746 18 c6 -20 4 -23 -18 -23 -33 0 -36 8 -23 59 l12 43 11 -28 c6
-16 15 -39 18 -51z m-921 -154 c8 -12 5 -24 -12 -48 -18 -25 -26 -29 -41 -21
-25 13 -42 64 -27 79 16 16 68 9 80 -10z m116 9 c19 -12 19 -12 0 -50 -17 -34
-22 -37 -39 -26 -10 7 -24 22 -31 35 -22 41 25 69 70 41z m-249 -73 c-14 -49
-25 -49 -45 -1 -13 30 -13 31 18 42 18 6 34 10 36 8 2 -2 -2 -24 -9 -49z m359
6 c-6 -14 -15 -32 -22 -39 -9 -12 -13 -8 -23 19 -22 60 -19 69 20 57 32 -10
34 -13 25 -37z m-499 23 c36 -7 35 -5 10 -96 -11 -40 -20 -86 -20 -103 -1 -29
-1 -29 -16 -10 -17 22 -50 129 -58 188 -6 43 -15 40 84 21z m674 -21 c-8 -59
-41 -166 -58 -188 -15 -19 -15 -19 -16 9 0 16 -10 65 -21 108 -12 44 -19 81
-17 84 5 4 78 20 105 23 8 1 10 -11 7 -36z m-729 -329 c19 -41 12 -58 -11 -25
-13 17 -19 20 -30 10 -17 -14 -18 -8 -2 26 15 33 23 32 43 -11z m743 11 c16
-34 15 -40 -2 -26 -11 10 -17 7 -30 -10 -23 -33 -30 -16 -11 25 20 43 28 44
43 11z m-651 -85 c7 -19 20 -48 29 -64 13 -26 13 -30 -3 -42 -29 -21 -51 -16
-68 16 -18 35 -19 94 -3 141 l11 33 10 -24 c5 -14 16 -41 24 -60z m573 -18 c0
-80 -38 -122 -83 -88 -16 12 -16 16 -3 42 19 36 42 91 52 124 l7 25 13 -30 c7
-16 13 -49 14 -73z m-671 0 c20 -53 18 -62 -9 -62 -29 0 -44 42 -30 85 7 20
14 34 16 32 3 -2 13 -27 23 -55z m751 22 c14 -42 -1 -84 -30 -84 -27 0 -29 9
-9 63 10 28 19 53 19 54 0 14 11 -4 20 -33z m-418 -63 c11 -29 -2 -40 -38 -33
-19 3 -24 11 -24 32 0 16 3 36 6 45 6 14 8 14 26 -2 11 -10 24 -29 30 -42z
m-112 9 c26 -50 25 -52 -7 -48 -17 2 -29 10 -31 21 -4 20 5 67 13 67 3 0 14
-18 25 -40z m214 24 c3 -9 6 -27 6 -40 0 -20 -5 -24 -30 -24 -35 0 -40 21 -14
58 18 26 30 28 38 6z m96 -37 c0 -29 -19 -43 -45 -33 -14 5 -13 11 6 47 23 46
39 40 39 -14z"/>
</g>
</svg>
