<!DOCTYPE svg PUBLIC "-//W3C//DTD SVG 20010904//EN" "http://www.w3.org/TR/2001/REC-SVG-20010904/DTD/svg10.dtd">
<svg version="1.0" xmlns="http://www.w3.org/2000/svg" width="918px" height="200px" viewBox="0 0 9180 2000" preserveAspectRatio="xMidYMid meet">
<g id="layer101" fill="#ffffff" stroke="none">
 <path d="M7044 1926 c-54 -17 -79 -36 -113 -82 -73 -101 -64 -247 26 -404 2 -3 -17 -11 -42 -18 -62 -16 -118 -70 -146 -140 -21 -50 -24 -73 -24 -187 0 -125 2 -132 31 -190 25 -50 38 -64 83 -87 l53 -28 234 0 234 0 0 151 0 151 42 -31 c63 -46 78 -42 78 20 0 53 -8 65 -87 130 l-32 27 -3 238 c-3 234 -4 240 -29 294 -15 30 -41 69 -58 87 -66 66 -169 95 -247 69z m85 -202 c16 -48 27 -284 14 -308 -8 -15 -16 -12 -60 28 -115 104 -133 282 -32 333 32 17 60 -2 78 -53z m-25 -475 c82 -97 -37 -329 -167 -329 -101 0 -116 174 -25 284 67 82 146 100 192 45z"/>
 <path d="M5360 1536 c-58 -20 -128 -74 -175 -134 -56 -72 -105 -162 -105 -195 0 -28 115 -171 130 -162 5 3 20 30 33 59 46 101 146 186 217 186 24 0 36 -9 61 -42 84 -115 134 -315 164 -665 l6 -73 -199 0 -198 0 -18 78 c-44 186 -107 323 -181 391 -51 47 -78 56 -150 48 -166 -17 -291 -155 -336 -372 -16 -75 -17 -98 -8 -140 23 -101 75 -166 168 -209 42 -19 64 -21 237 -21 l192 0 18 -90 19 -90 42 -9 c68 -14 77 -6 69 67 -4 34 -9 77 -13 95 l-5 32 401 0 402 0 -3 103 -3 102 -145 6 c-80 3 -146 7 -147 7 -2 1 -3 224 -3 495 0 272 -2 496 -4 498 -3 2 -31 2 -63 -1 l-58 -5 -5 -140 -5 -140 -19 69 c-26 95 -80 198 -122 235 -31 28 -41 31 -97 31 -34 -1 -78 -7 -97 -14z m-322 -733 c33 -52 76 -166 97 -254 l13 -57 -97 -4 c-61 -3 -101 -1 -110 6 -12 9 -13 8 -7 -3 12 -19 -71 -5 -104 18 -46 33 -56 62 -42 128 16 77 57 141 116 181 70 46 97 43 134 -15z"/>
 <path d="M433 1496 c-121 -30 -220 -99 -268 -187 -27 -49 -30 -64 -33 -170 -5 -134 8 -191 66 -304 49 -96 103 -165 227 -286 109 -107 165 -178 165 -211 0 -38 -29 -75 -71 -92 -38 -15 -46 -15 -94 -1 -52 15 -95 51 -95 80 0 7 13 15 29 18 46 9 61 32 61 91 0 93 -50 109 -180 55 l-75 -31 0 -126 c0 -105 -3 -131 -17 -152 -10 -13 -18 -31 -18 -39 0 -21 85 -8 121 18 l29 22 33 -25 c127 -97 317 -89 415 18 63 68 76 100 76 186 -1 127 -56 232 -202 380 -112 113 -129 137 -158 216 -28 79 -30 122 -7 186 15 42 22 50 62 65 63 25 194 23 241 -3 19 -10 42 -19 51 -20 9 -1 36 -15 61 -32 l44 -31 -22 -90 c-79 -311 -39 -561 103 -652 39 -24 58 -29 108 -29 155 0 219 111 219 385 1 122 -2 149 -23 210 -31 93 -80 181 -136 243 l-45 50 45 26 c78 46 169 53 305 25 59 -13 166 -100 218 -178 84 -126 121 -312 88 -441 -9 -36 -24 -71 -33 -77 -11 -8 -51 -13 -108 -13 l-92 0 -12 -71 c-9 -53 -9 -75 0 -85 6 -8 15 -11 20 -8 5 2 73 0 151 -6 214 -15 279 -15 289 1 14 22 42 110 36 115 -2 3 -28 8 -56 13 -28 4 -54 11 -57 14 -3 3 8 43 25 90 43 122 61 222 61 336 0 119 -20 192 -76 277 -108 165 -264 244 -479 244 -154 0 -276 -49 -375 -150 l-45 -46 -55 43 c-66 53 -195 118 -270 137 -87 21 -189 27 -247 12z m668 -568 c43 -86 62 -246 38 -332 -14 -51 -50 -86 -88 -86 -63 0 -96 90 -95 265 0 97 23 248 42 279 8 14 70 -61 103 -126z"/>
 <path d="M3853 1491 c-37 -17 -72 -55 -109 -117 -10 -17 -14 -15 -45 20 -38 44 -99 75 -145 76 -47 0 -130 -28 -163 -56 -16 -14 -43 -51 -58 -82 -26 -53 -28 -66 -27 -172 0 -100 4 -123 26 -175 30 -72 88 -117 174 -136 55 -12 55 -13 50 -43 -36 -201 -47 -407 -24 -451 38 -71 109 -115 185 -115 146 1 213 84 244 305 10 68 9 90 -5 143 -22 88 -64 146 -126 174 -28 13 -50 27 -50 32 0 6 12 48 26 95 31 101 80 209 123 269 26 35 37 42 64 42 39 0 73 -28 94 -77 18 -44 34 -38 49 19 23 90 -12 186 -87 235 -52 35 -139 41 -196 14z m-203 -206 c17 -9 30 -19 30 -24 0 -5 -15 -51 -34 -102 -18 -52 -41 -127 -51 -166 -9 -40 -22 -73 -29 -73 -25 0 -76 41 -82 66 -10 38 2 151 21 204 18 51 70 110 97 110 11 0 32 -7 48 -15z m170 -527 c39 -42 44 -61 38 -157 -6 -97 -34 -160 -83 -187 -34 -18 -35 -18 -54 1 -18 19 -19 25 -6 125 15 115 35 231 42 243 9 15 33 6 63 -25z"/>
 <path d="M2870 1485 c-41 -19 -86 -60 -105 -95 -10 -20 -15 -139 -21 -516 -7 -478 -6 -491 13 -535 30 -67 78 -100 156 -106 119 -10 182 48 212 191 46 223 6 385 -117 476 l-48 35 0 147 c0 156 14 221 49 233 23 7 80 -11 105 -33 12 -11 30 -22 40 -26 17 -6 18 -2 13 50 -7 71 -41 124 -102 159 -57 34 -144 43 -195 20z m157 -773 c24 -83 23 -216 -2 -267 -13 -26 -28 -41 -42 -43 l-23 -3 0 213 1 213 24 -28 c14 -15 32 -53 42 -85z"/>
 <path d="M6285 1480 l-100 -5 -3 -285 -2 -285 110 -73 c99 -64 125 -78 132 -69 1 1 4 130 7 287 l6 284 37 -38 37 -38 7 26 c9 36 -13 116 -39 144 -43 47 -83 57 -192 52z"/>
 <path d="M2345 1470 l-100 -5 -3 -285 -2 -285 110 -73 c99 -64 125 -78 132 -69 1 1 4 130 7 287 l6 284 37 -38 37 -38 7 26 c9 36 -13 116 -39 144 -43 47 -83 57 -192 52z"/>
 <path d="M7795 1466 c-101 -26 -161 -75 -204 -166 -23 -48 -26 -68 -26 -155 1 -125 24 -184 97 -250 71 -64 142 -88 246 -83 71 4 88 8 124 34 52 36 77 78 84 141 11 91 -34 185 -121 253 l-45 35 32 7 c38 8 166 -5 218 -23 19 -7 47 -20 61 -30 40 -28 52 -27 55 3 4 39 -53 126 -108 166 -75 53 -148 75 -263 78 -59 2 -120 -2 -150 -10z m100 -276 c18 -11 45 -38 61 -61 23 -34 28 -52 29 -101 0 -53 -3 -62 -28 -84 -55 -47 -157 -22 -193 47 -36 71 17 219 79 219 11 0 34 -9 52 -20z"/>
 <path d="M8575 1465 c-95 -37 -136 -121 -139 -282 l-1 -102 -51 29 -51 28 -26 -21 c-33 -27 -57 -84 -57 -135 0 -51 37 -194 52 -203 17 -11 28 -1 28 24 0 12 8 38 18 57 l17 35 180 5 180 5 5 171 c4 151 7 175 24 193 24 27 39 26 101 -3 77 -35 155 -133 185 -231 17 -55 27 -63 40 -31 22 59 2 165 -52 275 -64 133 -157 189 -323 197 -65 3 -101 0 -130 -11z"/>
 <path d="M6209 711 c-34 -34 -39 -44 -39 -86 0 -26 7 -59 16 -75 37 -61 123 -81 186 -42 42 26 58 59 58 119 0 39 -5 50 -39 84 -35 35 -44 39 -91 39 -47 0 -56 -4 -91 -39z"/>
 <path d="M2269 701 c-34 -34 -39 -44 -39 -86 0 -26 7 -59 16 -75 37 -61 123 -81 186 -42 42 26 58 59 58 119 0 39 -5 50 -39 84 -35 35 -44 39 -91 39 -47 0 -56 -4 -91 -39z"/>
 </g>

</svg>